<svg width="144" height="144" viewBox="0 0 144 144" fill="none" xmlns="http://www.w3.org/2000/svg">
<path d="M69.9256 140.481C57.0545 140.336 47.6416 136.789 39.1449 133.588C32.2716 130.997 29.6514 129.079 27.3899 127.468C24.0879 125.118 21.1826 122.317 19.3517 118.547C18.0278 115.821 15.9249 113.593 14.2301 111.101C8.86021 103.204 5.29065 94.5613 3.464 85.2C1.52403 75.2654 1.54144 65.3456 4.16606 55.5378C5.95625 48.8488 8.44049 42.4628 11.6256 36.4078C13.4789 32.8854 15.0631 29.8471 17.8042 26.3186C24.4208 17.7978 32.2036 13.5383 37.4614 10.7314C46.2104 6.05766 54.0548 4.16516 58.6532 3.32458C62.4482 2.6302 69.6378 1.62896 78.664 2.48238C85.7904 3.15665 92.8071 4.88495 99.708 7.66144C107.701 10.8779 115.002 15.2299 121.238 21.2326C125.535 25.3696 128.823 30.2636 131.574 35.5231C134.816 41.7204 137.567 48.1251 139.314 54.921C141.061 61.7169 141.66 68.6229 141.272 75.6303C140.573 88.2083 136.692 99.7869 130.422 110.636C128.946 113.189 127.713 115.88 126.053 118.331C124.118 121.191 121.903 122.605 119.09 124.753C113.479 129.037 108.311 131.526 104.167 133.492C102.023 134.509 100.724 135.126 98.7763 135.867C97.3636 136.405 92.7222 138.102 84.0891 139.345C80.2858 139.893 75.7501 140.545 69.9316 140.479L69.9256 140.481Z" fill="#B21F24"/>
<path d="M139.716 55.5401C138.229 48.1659 135.697 41.1802 132.039 34.5973C129.65 30.2976 126.396 26.5619 124.05 22.2348C123.887 21.9342 123.66 21.6697 123.286 21.518C123.4 22.6036 123.782 23.4985 124.422 24.2974C124.581 24.4936 124.646 24.777 124.715 25.0301C124.76 25.1936 124.699 25.3661 124.537 25.4653C124.346 25.5835 124.215 25.4366 124.115 25.321C123.653 24.7942 123.089 24.3145 122.78 23.7068C121.773 21.7313 120.454 19.9819 119.06 18.281C118.464 17.5531 118.378 17.5818 117.594 18.3061C119.025 19.4152 120.507 20.5067 121.32 22.1705C121.957 23.4738 122.079 25.0213 123.507 25.9075C123.947 26.1799 123.627 26.8282 123.27 27.1281C122.843 27.4882 122.643 26.9818 122.419 26.7312C122.288 26.5864 122.212 26.3917 122.118 26.2136C120.842 23.802 118.999 21.8189 117.2 19.8125C116.284 18.7907 116.223 18.8467 115.12 19.8516C115.238 19.9245 115.337 20.008 115.451 20.0528C117.667 20.946 119.195 22.4561 119.715 24.8498C119.785 25.1712 120.012 25.2389 120.264 25.35C121.343 25.8226 122.051 27.0796 121.913 28.247C121.89 28.4365 121.893 28.6855 121.666 28.7485C121.433 28.8136 121.33 28.5816 121.205 28.4345C120.601 27.719 119.972 27.0242 119.404 26.2815C118.031 24.4875 116.412 22.9519 114.566 21.6641C113.389 20.8429 113.366 20.8737 112.417 22.091C112.957 22.2901 113.495 22.4672 114.016 22.6809C115.118 23.1347 116.116 23.7502 116.703 24.83C117.357 26.0383 117.699 27.4026 119.068 28.174C119.627 28.489 119.703 29.4994 119.246 29.9911C118.741 30.5323 118.372 29.7315 117.976 29.4598C117.759 29.3115 117.57 29.1121 117.392 28.9145C115.85 27.1978 114.198 25.5949 112.362 24.1943C111.172 23.287 111.076 23.3461 110.221 24.5547C109.83 25.1087 109.967 25.3297 110.525 25.5443C111.493 25.9176 112.388 26.4418 113.259 27.0008C114.115 27.5503 114.945 28.1949 115.173 29.2269C115.374 30.1432 115.744 30.8335 116.587 31.2768C116.952 31.469 117.181 31.8481 117.262 32.2375C117.354 32.6728 117.585 33.2406 117.116 33.5297C116.745 33.7596 116.391 33.336 116.076 33.1082C115.861 32.9518 115.663 32.7668 115.482 32.5711C113.94 30.9087 112.473 29.1738 110.732 27.7061C109.112 26.3413 108.947 26.3783 108.087 28.2903C108.06 28.3513 108.024 28.4087 107.991 28.4659C107.82 28.7743 107.828 29.0031 108.203 29.1769C111.574 30.7393 113.722 33.6577 116.083 36.3347C116.84 37.1945 116.841 37.9961 116.145 38.5169C115.542 38.9686 114.93 38.7255 114.259 37.7949C114.012 37.4525 113.94 36.8941 113.458 36.8299C112.59 36.7108 112.122 36.0917 111.656 35.5006C110.813 34.4224 110.034 33.2921 109.226 32.1867C108.891 31.7264 108.56 31.2459 108.02 31.0087C107.446 30.7563 106.926 30.6953 106.737 31.5226C106.613 32.0727 106.393 32.6016 106.228 33.1429C105.719 34.8175 105.728 34.7891 107.395 35.166C109.824 35.7153 111.959 36.6993 112.979 39.2108C113.035 39.3498 113.079 39.5434 113.306 39.5267C114.673 39.4242 114.868 40.7144 115.492 41.4474C115.865 41.8865 115.468 42.3925 115.087 42.7553C114.682 43.1409 114.295 43.0358 113.947 42.6783C112.484 41.1703 110.584 40.2859 108.884 39.1164C107.953 38.4768 106.982 37.8584 105.848 37.6185C105.559 37.5567 105.135 37.3422 105.033 37.8655C104.867 38.7122 104.433 39.601 104.702 40.4028C104.878 40.924 105.781 40.9356 106.34 41.2186C106.429 41.2641 106.521 41.3036 106.611 41.3472C108.685 42.3229 110.722 43.3459 111.664 45.6488C111.737 45.8315 111.813 45.9277 112.016 45.8775C113.33 45.5495 113.93 46.5988 114.668 47.3124C115.003 47.636 115.403 48.1025 114.99 48.635C114.619 49.1141 114.031 49.2117 113.529 49.0015C111.932 48.3373 110.244 47.9288 109.058 46.3986C108.005 45.0412 106.587 43.9699 105.327 42.7754C105.079 42.5396 104.737 42.2804 104.445 42.3894C104.117 42.5136 104.203 42.9631 104.168 43.2876C104.082 44.118 104.016 44.9497 103.914 45.7785C103.722 47.3654 103.716 47.3595 105.176 47.9494C105.733 48.1741 106.292 48.3968 106.826 48.6644C108.38 49.4424 110.001 50.1662 110.88 51.7939C111.214 52.4129 111.436 52.8745 112.326 52.7137C113.047 52.582 114.018 53.6946 113.934 54.3219C113.847 54.9895 113.012 55.418 112.086 55.2704C112.021 55.2603 111.956 55.2421 111.891 55.2199C110.566 54.7807 109.225 54.3943 108.078 53.5299C107.279 52.9286 106.427 52.3891 105.564 51.88C103.64 50.7432 103.631 50.7596 103.63 52.9837C103.628 55.7263 103.641 55.6918 106.228 56.7348C107.558 57.2703 109.079 57.4344 110.206 58.3174C111.198 59.0939 112.171 59.662 113.428 59.7918C113.934 59.8432 114.419 60.1363 114.316 60.7903C114.219 61.3979 113.899 61.8494 113.223 61.9095C112.42 61.9813 111.658 61.9033 110.87 61.6191C108.711 60.8347 106.517 60.1499 104.338 59.4224C103.822 59.2508 103.607 59.3817 103.643 59.9633C103.715 61.1325 103.762 62.3045 103.77 63.4736C103.773 63.9718 103.97 64.191 104.437 64.2798C105.451 64.4709 106.458 64.7024 107.472 64.8876C108.553 65.0828 109.566 65.3805 110.12 66.4471C110.291 66.7756 110.537 66.8286 110.862 66.799C111.361 66.7542 111.863 66.7354 112.362 66.6906C112.897 66.6427 113.491 66.5026 113.673 67.2246C113.857 67.9585 113.377 68.2741 112.791 68.5846C111.351 69.3483 109.917 69.2398 108.442 68.7408C107.242 68.3341 106.034 67.9578 104.823 67.5896C104.345 67.4449 104 67.4651 104.069 68.1723C104.165 69.1701 104.172 70.1785 104.174 71.181C104.175 71.6411 104.324 71.7713 104.788 71.8521C106.238 72.1047 107.814 71.7992 109.134 72.4133C110.526 73.0595 111.888 72.9812 113.299 72.9557C113.5 72.9518 113.703 72.9519 113.901 72.9802C114.579 73.0768 114.745 73.4818 114.443 74.0472C113.989 74.8924 113.432 75.6883 112.336 75.6523C111.005 75.6091 109.695 75.953 108.352 75.7434C107.23 75.5675 106.115 75.3773 105.016 75.0982C104.682 75.0136 104.312 74.8718 104.339 75.4477C104.396 76.6133 103.955 78.095 104.619 78.8611C105.32 79.6722 106.83 79.6619 108.044 79.5258C109.724 79.3377 111.413 79.6014 113.093 79.3771C113.617 79.3075 114.389 79.1783 114.536 79.8972C114.672 80.5603 114.293 81.1963 113.709 81.6093C113.53 81.7351 113.28 81.7726 113.054 81.8154C110.482 82.2889 107.906 82.626 105.312 81.9931C104.794 81.8677 104.557 81.937 104.61 82.5341C104.708 83.5981 104.8 84.6663 104.829 85.7343C104.855 86.6236 105.189 86.9574 106.108 86.8058C107.662 86.5511 109.241 86.4825 110.808 86.5348C111.813 86.5695 112.765 86.6098 113.743 86.2575C114.521 85.9775 114.923 86.3996 114.902 87.2521C114.886 87.9357 114.551 88.3956 113.906 88.5934C112.059 89.1622 110.161 89.4772 108.234 89.5922C107.307 89.6476 106.377 89.6509 105.399 89.6797C105.58 90.685 105.743 91.6044 105.907 92.5238C105.989 92.9855 106.184 93.2068 106.72 93.3136C108.846 93.7352 110.901 93.5321 112.93 92.8415C113.08 92.7908 113.28 92.7226 113.339 92.6044C113.901 91.4667 114.984 91.6277 115.954 91.5489C116.62 91.4952 116.79 91.8699 116.549 92.4416C116.185 93.3042 115.53 93.87 114.603 93.9796C114.153 94.0331 113.911 94.217 113.633 94.5346C112.76 95.5327 111.65 96.0878 110.305 96.1455C109.296 96.1893 108.307 96.0456 107.318 95.8798C106.938 95.8166 106.634 95.7995 106.816 96.3667C107.059 97.1291 107.233 97.9116 107.46 98.6784C107.532 98.9214 107.598 99.1988 107.949 99.2346C110.488 99.4974 112.996 99.6366 114.968 97.5453C115.511 96.9687 116.84 96.7287 117.27 97.1219C117.745 97.5559 117.437 98.3707 116.61 99.1545C115.777 99.9425 114.683 100.296 113.789 100.998C112.314 102.156 110.647 102.766 108.743 102.034C108.704 102.019 108.634 102.09 108.545 102.14C108.841 102.982 109.131 103.829 109.443 104.67C109.546 104.948 109.666 105.214 110.069 105.192C111.441 105.117 112.747 104.892 114.04 104.319C115.492 103.676 116.438 102.368 117.853 101.732C118.424 101.474 119.069 100.579 119.557 101.119C120.133 101.757 119.308 102.495 118.952 103.142C118.423 104.098 117.43 104.609 116.756 105.409C116.028 106.27 115.173 106.789 114.113 107.096C112.994 107.42 111.826 107.274 110.592 107.469C110.867 108.078 111.145 108.572 111.317 109.103C111.558 109.841 112.011 109.987 112.755 109.971C114.611 109.928 116.162 109.336 117.583 108.103C118.276 107.5 118.225 106.491 119.045 106.051C119.55 105.783 120.055 105.129 120.602 105.816C121.065 106.395 121.09 107.035 120.476 107.696C119.732 108.5 118.834 109.125 118.264 110.148C117.514 111.494 116.136 111.995 114.593 112.002C114.037 112.005 113.479 111.814 112.846 112.02C113.27 112.564 113.243 113.483 114.135 113.505C115.303 113.533 116.479 113.482 117.643 113.369C118.603 113.277 120.319 111.842 120.15 111.21C119.949 110.458 120.2 110.051 120.717 109.68C121.203 109.332 121.674 108.929 122.277 108.801C122.948 108.658 123.316 109.075 123.122 109.736C123.016 110.093 122.783 110.371 122.532 110.652C121.871 111.39 121.207 112.113 120.7 112.996C119.724 114.698 118.267 115.716 116.204 115.666C115.933 115.66 115.61 115.553 115.373 115.811C116.312 117.431 116.42 117.478 118.122 116.986C118.345 116.921 118.572 116.858 118.786 116.769C120.361 116.126 121.734 115.276 122.44 113.6C122.68 113.028 123.097 112.489 123.788 112.353C123.977 112.315 124.202 112.431 124.233 112.669C124.315 113.328 124.042 113.964 123.544 114.242C122.704 114.711 122.462 115.52 122.042 116.243C121.392 117.362 120.447 118.119 119.213 118.497C118.824 118.615 118.409 118.645 117.958 118.722C118.811 119.756 119.735 119.955 120.732 119.32C120.929 119.194 121.128 119.071 121.317 118.933C122.7 117.93 124.04 116.908 124.504 115.108C124.641 114.578 125.102 114.152 125.544 113.788C125.948 113.454 126.166 113.687 126.208 114.1C126.239 114.402 126.086 114.664 125.866 114.901C125.206 115.614 124.676 116.399 124.458 117.376C124.108 118.945 123.006 119.87 121.653 120.579C121.392 120.717 121.006 120.708 120.863 121.118C121.021 121.158 121.162 121.244 121.268 121.213C123.483 120.567 124.82 118.942 125.892 117.03C125.938 116.949 125.995 116.82 125.963 116.757C125.473 115.821 126.375 115.473 126.74 114.904C126.857 114.721 127.069 114.627 127.262 114.744C127.452 114.861 127.424 115.088 127.388 115.292C127.342 115.565 127.202 115.786 127.023 115.992C126.508 116.586 126.434 117.288 126.567 118.049C126.972 116.522 128.424 115.652 128.922 114.168C129.163 113.454 129.632 112.807 130.049 112.164C137.072 101.271 140.665 89.2926 141.278 76.3956C141.61 69.3879 141.092 62.4333 139.704 55.5485L139.716 55.5401Z" fill="white"/>
<path d="M22.2143 20.5109L23.443 18.365C22.7677 18.9033 22.1793 19.5274 21.9934 20.3787C22.067 20.4228 22.1406 20.4648 22.2162 20.5088L22.2143 20.5109Z" fill="white"/>
<path d="M119.714 121.719C119.11 121.339 119.235 122.038 119.16 122.298C118.791 123.598 118.121 124.687 116.99 125.444C116.133 126.017 115.236 126.534 114.367 127.092C113.834 127.435 113.331 127.826 112.795 128.165C112.572 128.306 112.293 128.391 112.059 128.148C111.81 127.893 111.972 127.633 112.11 127.418C112.525 126.77 113.199 126.461 113.858 126.126C114.325 125.89 114.868 125.821 115.257 125.396C116.26 124.3 117.099 123.116 117.638 121.72C118.155 120.378 118.163 120.352 116.847 119.539C116.737 119.898 116.596 120.237 116.532 120.591C116.188 122.494 115.005 123.654 113.256 124.304C112.777 124.481 112.391 124.753 111.999 125.078C111.444 125.532 111.024 126.073 110.612 126.642C110.446 126.872 110.259 127.197 109.894 127.025C109.562 126.868 109.592 126.515 109.638 126.225C109.775 125.377 110.065 124.645 110.921 124.21C111.445 123.943 112.028 123.799 112.483 123.356C113.782 122.094 114.594 120.62 115.085 118.857C115.397 117.737 115.045 117.165 114.247 116.543C113.647 118.61 112.507 120.143 110.562 120.986C110.265 121.115 110.095 121.349 109.878 121.552C108.998 122.37 108.128 123.197 107.225 123.989C106.965 124.218 106.585 124.484 106.25 124.18C105.957 123.914 106.188 123.561 106.322 123.256C106.881 121.992 107.735 120.968 108.954 120.328C110.956 119.278 111.916 117.484 112.467 115.442C112.735 114.454 112.732 113.385 111.739 112.581C111.205 114.087 110.567 115.478 109.717 116.763C109.461 117.148 109.178 117.721 108.712 117.657C107.365 117.469 106.738 118.43 105.921 119.153C105.45 119.571 104.895 119.897 104.356 120.232C103.979 120.466 103.53 120.644 103.15 120.294C102.752 119.922 102.963 119.467 103.196 119.103C104.092 117.696 105.213 116.532 106.834 115.962C107.025 115.894 107.186 115.849 107.332 115.68C108.381 114.468 109.433 113.275 110.045 111.744C110.635 110.268 110.589 109.655 109.446 108.316C109.27 108.766 109.112 109.2 108.932 109.625C108.348 111.007 107.41 112.168 106.032 112.67C104.857 113.099 103.992 113.861 103.035 114.551C102.736 114.766 102.444 114.994 102.123 115.168C101.821 115.334 101.456 115.7 101.143 115.372C100.84 115.055 101.038 114.607 101.241 114.254C101.779 113.306 102.486 112.475 103.435 111.959C105.5 110.837 106.663 109.001 107.791 107.039C108.567 105.688 108.189 104.646 107.535 103.39C106.392 105.521 104.637 106.724 102.484 107.356C102.074 107.476 101.774 107.608 101.507 107.935C100.748 108.866 99.6891 109.261 98.5522 109.475C98.2265 109.537 97.8454 109.558 97.6543 109.208C97.4653 108.862 97.6855 108.562 97.8988 108.299C98.0228 108.144 98.1693 108.001 98.3285 107.882C100.478 106.234 102.254 104.174 104.359 102.467C106.339 100.861 106.554 99.0808 105.333 96.8484C105.189 97.1399 105.069 97.4107 104.923 97.6682C104.077 99.1497 102.847 100.289 101.223 100.682C100.299 100.906 99.697 101.336 99.0859 101.941C98.5842 102.438 97.9758 102.795 97.3079 103.038C96.964 103.162 96.5907 103.312 96.2804 103.012C96.0054 102.745 96.1038 102.402 96.1923 102.066C96.4146 101.222 96.8207 100.48 97.615 100.091C99.4075 99.2169 100.645 97.6394 102.235 96.5056C103.067 95.9105 103.763 95.1044 104.328 94.2218C104.468 94.0027 104.693 93.8113 104.626 93.5078C104.357 92.2861 104.084 91.0666 103.776 89.6833C103.252 90.3215 102.833 90.8281 102.42 91.3385C101.806 92.098 101.174 93.079 100.232 93.155C98.3455 93.307 96.929 94.1242 95.6427 95.4057C95.2347 95.8136 94.6046 95.9064 94.1166 95.3703C93.6473 94.8517 93.9397 94.3408 94.2364 93.9101C94.992 92.823 95.9764 91.9321 97.1592 91.3668C99.5367 90.228 101.383 88.5 102.988 86.4636C103.161 86.2436 103.269 86.0294 103.236 85.735C103.103 84.4892 102.986 83.241 102.845 81.7925C101.474 83.7717 99.679 84.8914 97.7072 85.7511C97.2589 85.9471 96.9237 86.164 96.6528 86.5838C95.9111 87.7328 94.7694 88.2627 93.4487 88.3779C92.5308 88.4572 92.1489 87.8375 92.5913 87.0289C93.0566 86.1834 93.7676 85.5597 94.6488 85.1902C95.7622 84.7234 96.6996 84.079 97.5454 83.1901C98.9975 81.6686 100.588 80.2797 102.11 78.8224C102.345 78.5985 102.652 78.3886 102.645 78.007C102.623 76.9227 102.585 75.8409 102.548 74.5882C100.815 75.6418 99.2284 76.4781 97.5839 77.1936C96.2092 77.7926 94.7953 78.2903 93.3463 78.6866C92.9656 78.7902 92.5186 78.8958 92.2413 78.484C91.9765 78.09 92.2044 77.7096 92.4134 77.3679C92.864 76.6354 93.4295 76.0541 94.3326 75.8829C94.6164 75.8303 94.9301 75.7026 95.1333 75.5077C97.0659 73.6586 99.3336 72.3381 101.748 71.2363C102.036 71.1053 102.397 71.0284 102.359 70.5634C102.291 69.7296 102.238 68.8953 102.203 68.0605C102.181 67.5207 101.928 67.5141 101.57 67.7557C99.1148 69.4092 96.2408 69.5842 93.4539 70.056C93.0001 70.1336 92.5091 70.2465 92.2312 69.6781C91.9469 69.0978 92.0238 68.5691 92.4522 68.1084C93.1085 67.4 93.9377 67.1083 94.8924 67.1867C95.2267 67.2151 95.5297 67.2684 95.8489 67.0561C97.6346 65.8784 99.4879 64.8152 101.394 63.8449C101.642 63.7191 101.96 63.6273 101.944 63.224C101.885 61.8193 101.886 60.4108 101.77 59.0118C101.723 58.4426 101.469 57.8694 100.687 58.449C98.4846 60.083 95.7747 60.1668 93.2592 60.8496C93.1635 60.8745 93.059 60.8736 92.9605 60.8725C92.2994 60.8678 91.97 60.5319 91.9928 59.8722C92.0313 58.8585 92.6172 58.2867 93.5482 58.0403C94.3197 57.8347 95.2596 57.8895 95.8516 57.4561C97.4015 56.3235 99.0845 55.615 100.922 55.1792C101.451 55.0531 101.726 54.7135 101.714 54.0829C101.69 52.8841 101.723 51.6777 101.831 50.4851C101.89 49.8404 101.655 49.7147 101.117 49.7868C100.885 49.8177 100.635 49.7869 100.42 49.8616C98.5744 50.5046 96.729 51.1536 94.8943 51.8264C94.1946 52.0821 93.461 52.0736 92.7442 52.159C92.3838 52.2017 92.184 51.8982 92.0966 51.521C91.8686 50.5352 92.4545 49.3466 93.4616 49.2285C94.9112 49.0573 96.2434 48.6504 97.4874 47.9106C97.515 47.8937 97.5533 47.8966 97.5851 47.8856C98.7847 47.4786 100.009 47.1613 101.254 46.9197C101.649 46.8437 102.115 46.83 102.163 46.2018C102.253 45.0378 102.412 43.8798 102.548 42.7205C102.606 42.2286 102.478 42.0234 101.947 42.2319C99.9514 43.02 97.7954 43.1538 95.747 43.7304C94.8224 43.9907 93.2995 43.2419 93.1449 42.3604C92.9712 41.371 93.8888 41.1491 94.5142 40.755C95.2263 40.3061 95.8689 40.6367 96.4763 41.0006C96.7463 41.1614 96.9356 41.3126 97.2773 41.1136C98.7825 40.2355 100.486 40.0106 102.164 39.7643C102.776 39.6739 103.144 39.5365 103.215 38.8714C103.275 38.3111 103.419 37.7583 103.503 37.2013C103.506 37.1751 103.29 37.071 103.18 37.0782C100.833 37.1976 98.6162 36.1578 96.2641 36.3154C95.7086 36.3518 95.234 36.0624 94.7438 35.8599C94.2251 35.6461 94.1876 35.2594 94.3647 34.7901C94.7951 33.6442 95.5463 33.4333 96.6568 34.0937C96.9492 34.268 97.1788 34.8318 97.7051 34.2839C98.8904 33.0495 100.404 32.8623 102.045 32.9768C102.902 33.0359 103.858 33.9059 104.505 33.2841C105.085 32.7265 105.127 31.6323 105.481 30.8062C105.684 30.332 105.548 30.1713 105.12 30.0051C103.425 29.3497 101.645 29.4363 99.9829 29.8268C98.9414 30.0724 98.1812 29.8436 97.3274 29.5051C96.687 29.2507 96.4207 28.8045 96.7837 28.1689C97.1353 27.5538 97.815 26.8909 98.3701 27.4552C99.4554 28.5584 100.34 28.3636 101.366 27.5318C101.511 27.415 101.737 27.3782 101.933 27.3443C103.374 27.0969 104.795 27.244 106.197 27.6166C106.417 27.6744 106.691 27.8954 106.835 27.6601C107.197 27.0708 107.763 26.4936 107.704 25.7941C107.657 25.2289 106.96 25.1007 106.461 24.9346C106.151 24.8312 105.811 24.7548 105.486 24.7584C104.411 24.7719 103.35 24.6826 102.294 24.5027C102.106 24.4701 101.85 24.4455 101.714 24.5419C100.405 25.4685 99.3717 24.6932 98.3565 23.9918C97.7392 23.5659 97.8482 23.1046 98.4997 22.78C99.1056 22.4769 99.7129 22.4972 100.33 22.7884C101.166 23.1837 101.902 23.156 102.836 22.7448C104.737 21.9113 106.74 22.1979 108.486 23.2757C109.278 23.7647 109.509 23.4907 109.957 22.9591C110.501 22.3162 110.082 21.8825 109.644 21.6523C108.111 20.8476 106.564 19.9608 104.717 20.7104C104.394 20.8404 104.057 20.7439 103.742 20.6085C103.191 20.3716 102.63 20.159 102.094 19.8935C101.759 19.7286 101.18 19.6492 101.322 19.1407C101.449 18.6829 102.058 18.685 102.369 18.8225C103.998 19.5421 105.538 19.0467 107.155 18.744C108.845 18.427 110.296 19.1236 111.354 20.5291C111.564 20.8062 111.823 21.0819 112.136 20.6547C112.319 20.4042 112.92 20.3323 112.555 19.8186C111.968 18.9961 111.351 18.09 110.283 17.9908C108.117 17.7914 106.104 16.8139 103.904 16.8325C103.641 16.8342 103.18 16.8658 103.206 16.4592C103.229 16.0788 103.662 16.1303 103.946 16.1441C105.511 16.2125 107.084 16.5339 108.611 15.8561C108.825 15.7614 109.138 15.8687 109.402 15.9031C111.211 16.1312 112.654 17.023 113.88 18.335C114.073 18.5403 114.195 18.9406 114.67 18.7659C115.479 18.4688 115.644 18.0701 114.976 17.5433C113.231 16.1681 111.446 14.8283 109.02 15.0122C108.723 15.035 108.235 15.176 108.201 14.7068C108.171 14.2878 108.66 14.3136 108.961 14.2244C109.118 14.1776 109.293 14.1945 109.46 14.1876C110.889 14.1355 112.313 14.1317 113.715 14.5847C111.667 13.1301 109.572 11.7793 107.366 10.6126C95.012 4.08675 81.7951 1.54641 67.9082 2.24652C60.0458 2.64271 52.4775 4.42462 45.1066 7.18321C39.6535 9.22433 34.6373 12.1868 29.2888 14.4358C29.0863 14.5202 28.8611 14.5831 28.7523 14.8434C28.4311 15.6043 27.7057 15.8045 27.0064 16.0059C26.7553 16.0776 26.4792 16.0475 26.2872 16.2842C25.0759 17.7926 23.7888 19.253 23.2202 21.1644C21.385 21.4093 19.8122 22.1046 18.8655 23.8001C18.396 24.6417 17.9082 25.4738 17.6102 26.4088C17.4133 27.0234 17.0995 27.6253 16.4159 28.0191C16.1175 26.8224 17.169 26.1646 17.4647 25.0147C16.778 25.7803 16.3694 26.4393 16.0604 27.1355C13.8259 32.176 10.8572 36.8464 8.59409 41.8717C4.46954 51.0284 2.27882 60.6285 2.12626 70.6668C2.03872 76.498 2.56068 82.2852 3.83171 87.992C5.9175 97.3517 9.57416 106.018 15.2694 113.773C17.1239 116.298 19.1828 118.67 20.1318 121.763C20.4651 122.848 21.2872 123.68 22.4448 124.1C21.5408 123.355 21.0179 122.382 20.6826 121.297C20.316 120.106 20.2034 118.803 19.1485 117.916C18.9838 117.778 18.8318 117.53 19.0764 117.307C19.3033 117.1 19.5138 117.218 19.6917 117.394C20.0477 117.747 20.4741 118.104 20.5708 118.591C20.9629 120.579 22.2063 122.073 23.3769 123.616C24.1649 124.654 24.2995 124.652 25.2462 123.573C23.4047 123.059 22.3458 121.828 21.9648 120.009C21.7449 118.957 21.4643 117.954 20.536 117.272C20.4107 117.18 20.3433 117.003 20.2606 116.859C20.161 116.683 20.0541 116.463 20.2591 116.328C20.3596 116.263 20.5824 116.323 20.721 116.389C21.4567 116.741 21.8988 117.359 22.1876 118.094C22.9914 120.144 24.5378 121.35 26.5748 122.023C26.8751 122.123 27.1329 122.143 27.2487 121.845C27.3775 121.511 27.0117 121.506 26.8341 121.413C25.5584 120.733 24.5286 119.809 23.9189 118.481C23.2641 117.056 23.0606 115.396 21.7253 114.332C21.7006 114.313 21.6935 114.275 21.6786 114.245C21.4972 113.887 21.2419 113.472 21.6468 113.167C22.0419 112.87 22.3555 113.285 22.5479 113.54C23.3236 114.57 24.0995 115.606 24.7787 116.702C25.6139 118.047 26.8237 118.874 28.23 119.483C28.578 119.634 28.9309 119.816 29.1807 119.359C29.4323 118.895 28.989 118.786 28.7468 118.612C27.6281 117.805 26.5608 116.975 25.9775 115.654C25.3619 114.261 24.8369 112.81 23.7467 111.677C23.5706 111.493 23.48 111.214 23.3903 110.966C23.3268 110.789 23.2082 110.582 23.3696 110.4C23.5642 110.183 23.8121 110.278 24.0233 110.357C24.8135 110.649 25.2036 111.343 25.5014 112.041C26.4403 114.246 28.3538 115.294 30.3495 116.268C30.6899 116.435 30.8544 116.358 31.0721 116.04C31.5595 115.331 31.2274 114.969 30.6168 114.635C29.3405 113.935 27.9166 113.411 27.4135 111.812C27.132 110.918 26.6913 110.143 25.7624 109.711C25.3203 109.505 24.9982 109.072 24.7361 108.634C24.4656 108.182 24.2367 107.64 24.5863 107.232C24.9768 106.776 25.5184 107.09 25.9652 107.32C26.7078 107.7 27.0325 108.494 27.5784 109.018C28.9638 110.352 30.4689 111.589 32.182 112.519C32.2963 112.58 32.3989 112.652 32.5409 112.561C33.2428 112.109 33.2131 110.281 32.4878 109.87C31.4703 109.296 30.4045 108.786 29.7549 107.741C28.888 106.344 28.2103 104.821 26.6906 103.909C26.0811 103.543 26.3634 103.033 26.9764 102.834C27.4421 102.683 27.9021 102.748 28.2786 103.117C28.7338 103.562 29.173 104.015 29.5342 104.545C30.2564 105.598 31.1469 106.5 32.2778 107.106C34.0559 108.06 34.1294 107.962 34.7328 106.075C35.0622 105.045 34.6928 104.578 33.8212 104.252C33.2585 104.041 32.6977 103.829 32.1406 103.606C31.5673 103.376 31.0864 103.012 30.7654 102.481C29.9161 101.068 29.2734 99.5072 27.877 98.4814C27.6634 98.325 27.5365 98.0414 27.6972 97.7654C27.8483 97.5058 28.1349 97.4813 28.4039 97.4734C29.3152 97.4466 30.0372 97.8794 30.5752 98.5467C31.5283 99.7302 32.799 100.444 34.1294 101.07C35.7878 101.847 35.7992 101.825 36.1701 100.025C36.4321 98.754 36.289 98.3986 35.0441 98.2202C33.2463 97.9617 32.1565 96.9109 31.4898 95.3533C31.1964 94.6667 30.8328 94.1912 30.0916 93.992C29.6663 93.878 29.3704 93.517 29.0854 93.1878C28.7754 92.8273 28.6844 92.398 28.9294 91.9829C29.2088 91.5085 29.6837 91.6031 30.0958 91.7456C30.5728 91.9104 30.9892 92.2015 31.3338 92.5792C32.7145 94.0916 34.3699 95.1098 36.3975 95.5303C36.8685 95.6289 37.0251 95.556 37.1341 95.0947C37.6852 92.794 37.4665 92.1897 35.4807 90.8698C35.0668 90.5947 34.6217 90.3547 34.1694 90.1429C33.3057 89.7404 32.5443 89.1962 31.9637 88.4498C31.6568 88.057 31.3428 87.8995 30.8636 88.004C30.7079 88.0367 30.5263 88.0119 30.3703 87.9663C29.6732 87.7658 29.0534 87.4606 28.8594 86.6707C28.7386 86.184 28.7734 85.6586 29.1997 85.3989C29.8728 84.9913 30.7566 84.9813 31.2738 85.4885C32.3207 86.5145 33.7106 86.6364 34.9459 87.1023C37.7843 88.174 37.8889 88.0444 37.8835 85.0609C37.8816 83.5621 37.8859 83.4354 36.474 83.3865C34.1208 83.3051 32.3825 81.4496 30.0207 81.3463C29.1396 81.3079 28.7483 79.9612 29.1443 79.1479C29.5496 78.3122 30.2312 78.1897 31.2596 78.728C31.5698 78.8897 31.8302 79.2718 32.2454 79.1109C33.356 78.6844 34.335 79.1137 35.3317 79.5263C36.0985 79.8453 36.8802 80.1237 37.7316 80.4482C37.9321 78.9997 37.7534 77.6368 37.7233 76.2754C37.7155 75.8738 37.4033 75.8468 37.0978 75.7734C36.0899 75.5258 35.1264 75.1463 34.2137 74.6528C33.3971 74.2107 32.6329 73.7108 31.6186 74.1305C31.2752 74.2732 30.8242 74.174 30.4237 74.1496C29.7514 74.1091 29.4202 73.709 29.3288 73.0607C29.2327 72.3904 29.4079 71.8589 30.0731 71.5922C30.6808 71.3492 31.3241 71.2941 31.9432 71.507C33.354 71.9959 34.8515 72.0864 36.2866 72.5143C37.7885 72.9603 37.7278 73.151 37.6759 71.3885C37.6631 70.9528 37.6744 70.5185 37.6656 70.0828C37.6306 68.5508 37.6287 68.5549 36.179 68.3143C35.5874 68.2151 34.9845 68.1425 34.4128 67.9684C33.1112 67.5728 31.8472 67.1539 30.4615 67.7211C29.9949 67.9116 29.2909 68.0208 29.1288 67.1535C28.9501 66.2044 29.3071 65.2275 30.0314 65.1921C31.3416 65.1294 32.6459 64.9384 33.9535 64.926C34.982 64.9178 36.0157 65.0863 37.0386 65.233C37.5451 65.3065 37.6692 65.1542 37.693 64.6652C37.8317 61.7338 37.6555 61.5481 34.7543 61.6194C33.7203 61.6438 32.6707 61.8214 31.6535 61.5962C31.1681 61.4879 30.8037 61.4645 30.347 61.715C29.2476 62.318 28.4563 61.849 28.3329 60.5949C28.2554 59.8035 28.6414 59.1974 29.2448 58.81C30.2939 58.1382 31.5862 57.8791 32.7285 57.9841C34.0461 58.1041 35.3638 58.2984 36.6966 58.3897C37.3408 58.4331 37.3415 58.1859 37.3043 57.741C37.1828 56.3421 37.0552 54.9435 36.9457 53.5423C36.9104 53.0953 36.6952 52.9509 36.2587 52.8653C34.9693 52.6099 33.7295 52.8775 32.4802 53.0971C31.123 53.3359 29.8475 53.7572 28.7255 54.614C28.3306 54.917 27.7484 55.0707 27.357 54.6061C26.9531 54.1277 27.0244 53.545 27.3646 53.0226C27.4723 52.8567 27.6081 52.694 27.7655 52.5789C29.0222 51.6558 30.5106 51.164 31.8735 50.4387C32.7518 49.9708 33.848 50.2158 34.8474 50.1764C36.4208 50.114 36.4272 50.1258 36.2282 48.6208C36.1713 48.1905 36.0804 47.7652 36.0056 47.3375C35.9718 47.1456 35.9873 46.9221 35.7149 46.8839C34.5789 46.7184 33.405 46.1542 32.3299 46.9675C30.8715 48.0692 29.0546 48.3879 27.5037 49.2815C27.1895 49.4615 26.7941 49.5455 26.4643 49.2598C26.1179 48.9606 26.1097 48.5449 26.1944 48.1446C26.2931 47.6756 26.5849 47.2832 26.9149 46.9601C28.3896 45.5223 30.0584 44.4706 32.2188 44.4894C32.9543 44.4959 33.6929 44.4681 34.4257 44.5189C35.1948 44.5726 35.4802 44.303 35.2808 43.5353C35.0293 42.5683 34.7998 41.5945 34.5702 40.6228C34.515 40.3853 34.4442 40.1624 34.1983 40.0672C33.2898 39.7162 32.3508 39.2817 31.4112 39.8518C29.8991 40.7663 28.3896 41.7008 27.1099 42.936C26.6274 43.4023 26.1488 43.8684 25.5534 44.1853C24.7542 44.6107 24.4004 44.4001 24.455 43.5225C24.4944 42.8824 24.6051 42.208 25.0537 41.7488C26.7331 40.0317 28.2277 38.0429 31.0501 38.0964C31.9005 38.1136 33.2321 38.3677 33.565 37.7351C33.9267 37.0513 33.0869 36.0293 32.8516 35.1341C32.6412 34.3346 32.2122 34.0941 31.4682 34.347C29.1665 35.126 27.2711 36.536 25.5978 38.2529C25.0107 38.8548 24.4441 39.4682 23.6961 39.8559C22.9362 40.252 22.36 39.8591 22.4155 39.0136C22.4417 38.607 22.6243 38.258 22.8269 37.9025C23.3482 36.981 24.4085 36.8232 25.0942 36.2304C25.7682 35.646 25.9896 34.5665 26.9194 34.0751C28.1697 33.4134 29.407 32.7863 30.8883 32.8713C31.162 32.8873 31.5924 32.9711 31.7349 32.555C31.8365 32.2547 30.9029 30.6386 30.5876 30.5736C29.1805 30.2795 27.8528 30.3607 26.785 31.4872C26.3485 31.9481 25.9244 32.4227 25.488 32.8836C24.502 33.9272 23.5222 34.9747 22.5136 35.9989C22.2581 36.2576 21.8636 36.5083 21.5298 36.2248C21.165 35.9141 21.3087 35.4718 21.5845 35.1483C21.9281 34.7424 22.3087 34.3615 22.7083 34.0102C22.9394 33.8085 23.1379 33.658 23.1514 33.2979C23.2547 30.5965 24.9577 29.6121 26.9631 29.0749C27.8821 28.8289 28.8524 28.961 29.847 28.6907C29.4656 28.0871 29.1453 27.5822 28.8271 27.0772C28.6795 26.8424 28.5163 26.6202 28.1964 26.6738C27.007 26.8796 25.7872 27.0782 24.9352 28.0296C23.7681 29.3357 22.4573 30.5356 21.7511 32.208C21.522 32.7532 21.116 33.2272 20.7647 33.7137C20.6064 33.9334 20.3668 34.1213 20.0783 34.0132C19.8061 33.9127 19.718 33.6501 19.6996 33.3634C19.625 32.1942 19.7571 31.0853 20.6578 30.2189C20.8571 30.0282 21.0275 29.8765 21.0263 29.5631C21.015 28.3619 21.7542 27.6731 22.7408 27.1981C24.3198 26.4383 25.9291 25.754 27.8657 25.7453C27.4781 25.2745 27.202 24.9049 26.8906 24.5644C25.6533 23.2105 24.4556 23.2036 23.1204 24.5327C22.9545 24.6984 22.7969 24.8718 22.6557 25.0588C21.3487 26.799 19.4791 28.1259 18.8109 30.3416C18.7139 30.6619 18.4071 31.0908 17.9927 30.872C17.6397 30.6855 17.9068 30.2738 17.9699 29.9585C18.1297 29.1762 18.8978 28.6493 19.0569 27.9816C19.5268 25.9927 20.9539 24.9883 22.5363 24.0738C23.3324 23.6123 24.1668 23.2201 24.994 22.7919C24.7363 22.2972 24.3362 22.2185 23.938 22.3428C22.7195 22.7202 21.5126 23.1495 20.7604 24.2868C19.993 25.4506 18.951 26.4296 18.4953 27.8093C18.3606 28.2151 18.0102 28.8703 17.5543 28.6728C17.0027 28.4318 17.3238 27.7372 17.5357 27.3573C18.1616 26.2338 18.8712 25.1541 19.5975 24.094C19.794 23.8069 20.1604 23.6273 20.4679 23.4274C21.223 22.9371 21.9907 22.4644 22.7499 21.9779C23.0122 21.8095 23.4224 21.7552 23.3303 21.2858C23.6851 21.3959 23.963 21.3495 24.1569 20.9741C24.3565 20.5885 24.6194 20.2372 24.8272 19.8574C25.8701 17.9481 27.2814 16.5463 29.5891 16.3779C29.966 16.3508 30.1494 16.1665 30.3472 15.8533C30.6734 15.3314 31.1858 14.9948 31.8142 14.908C32.0223 14.8798 32.1028 15.0884 32.0594 15.2544C31.8738 15.9772 31.3114 16.3935 30.6693 16.5591C29.3851 16.8902 28.2564 17.5202 27.1701 18.2253C25.9359 19.0231 25.2478 20.2207 24.8673 21.6283C24.7513 22.0536 24.8825 22.2788 25.2126 22.4379C25.663 22.6537 25.6819 22.2051 25.8202 21.986C26.2676 21.2817 26.6904 20.56 27.1316 19.8518C27.7073 18.9307 28.5749 18.1678 29.5686 18.0703C30.6584 17.9638 31.3034 17.3521 32.0626 16.7954C32.3045 16.6175 32.5359 16.4238 32.784 16.2537C33.0657 16.0626 33.3636 15.877 33.6691 16.2197C33.9497 16.5369 33.8226 16.8621 33.6278 17.1391C33.0378 17.9802 32.1109 18.2988 31.2004 18.629C30.8684 18.7493 30.6677 18.1424 30.3036 18.4686C28.8883 19.7378 27.3699 20.9157 26.4995 22.6752C26.3079 23.0626 26.3413 23.4454 26.6805 23.775C27.1789 24.2566 27.6577 24.7568 28.2064 25.3093C28.5205 23.8956 29.272 22.8086 30.0929 21.7558C30.4163 21.3424 30.8279 20.9927 31.3276 20.972C32.2407 20.9331 32.8738 20.7356 33.2605 19.7457C33.4771 19.1868 34.2267 18.3712 34.8931 18.8277C35.6088 19.319 35.0079 20.1343 34.6793 20.7789C34.2596 21.605 33.3935 21.6686 32.6892 22.043C31.3659 22.749 30.4608 23.8787 29.8085 25.2661C29.2431 26.4682 29.3791 27.4005 30.4495 28.2711C30.8092 27.5914 31.1979 26.9391 31.5092 26.2528C32.6263 23.7948 35.2094 23.0216 37.0731 21.4237C37.6062 20.968 38.0803 21.374 38.008 22.1275C37.8975 23.2861 37.3218 24.3438 36.2586 24.6041C34.966 24.9214 34.2582 25.8585 33.374 26.6038C31.6272 28.0777 31.2993 30.3859 32.5148 32.0217C33.2389 30.8873 33.7528 29.6426 34.5734 28.5817C34.9296 28.1211 35.3339 27.5909 35.9137 27.6321C37.3815 27.7375 38.1256 26.6668 39.0673 25.8957C39.2223 25.7686 39.356 25.6039 39.5305 25.5224C39.8397 25.3787 40.0826 25.3736 40.1724 25.829C40.4213 27.1176 39.287 28.7182 38.0271 28.7814C37.7923 28.7923 37.6634 28.9187 37.527 29.0613C36.8548 29.7723 36.0532 30.3223 35.2367 30.8426C34.5839 31.2576 34.1522 31.8148 33.8573 32.5106C33.224 33.998 33.4496 35.3837 34.7411 37.3488C35.7462 34.2271 38.8422 33.1977 40.6888 30.9513C40.8324 30.7763 41.0475 30.6454 41.2513 30.5369C41.5064 30.4008 41.7682 30.148 42.0797 30.3538C42.3891 30.5577 42.4435 30.9057 42.4194 31.248C42.3598 32.0896 41.9618 32.7663 41.3661 33.3464C40.8818 33.8208 40.0785 33.969 39.7299 34.4132C38.632 35.8158 37.1892 36.9011 36.1999 38.3788C35.8054 38.9691 35.3279 39.604 35.5098 40.3942C35.7538 41.4479 36.0557 42.4878 36.3788 43.7039C37.0642 42.6892 37.6388 41.8003 38.2524 40.9404C39.0108 39.8813 39.8964 38.9772 41.3224 38.9594C41.7261 38.9555 41.6822 38.6936 41.7837 38.4535C42.0783 37.7477 42.6137 37.2316 43.2912 36.9063C43.6756 36.7222 44.2253 36.5593 44.424 37.098C44.6752 37.7817 44.8732 38.6378 44.3026 39.1851C43.8356 39.6328 43.5853 40.8216 42.4734 40.1109C42.2194 39.9476 42.125 40.2216 42.0268 40.3672C41.2083 41.5686 40.0775 42.4699 39.0813 43.5038C37.4924 45.1539 36.5518 47.2591 37.6503 49.3585C38.3326 48.5126 38.9911 47.6735 39.6783 46.8576C40.0394 46.4291 40.3298 45.7836 40.884 45.703C42.3523 45.485 43.3825 44.8539 44.0609 43.4657C44.3887 42.793 45.0583 42.9481 45.4721 43.6271C45.9661 44.4383 45.9066 45.4186 45.0614 46.0562C43.7386 47.0536 42.5931 48.2727 41.1512 49.1148C39.5887 50.0268 38.5982 51.5949 38.1875 53.138C37.8003 54.592 38.3932 56.3045 38.5665 58.0273C39.4142 57.3393 40.0939 56.7467 40.6206 56.0059C41.4696 54.8135 42.4377 53.7784 43.9212 53.3932C44.0628 53.3569 44.1437 53.3063 44.2017 53.1639C44.5245 52.3869 45.2085 51.9408 45.8161 51.4227C46.118 51.1666 46.4119 50.7783 46.8459 51.0508C47.2348 51.2945 47.1661 51.7586 47.1216 52.1578C46.9624 53.5729 46.2026 54.4492 44.9889 55.2645C43.1092 56.5253 41.6573 58.3241 40.078 59.9598C38.6917 61.395 38.6903 62.9843 38.9949 64.7997C40.1373 64.1573 41.1285 63.4289 42.08 62.6515C42.5823 62.2409 43.1286 61.8933 43.7633 61.8183C44.6803 61.709 45.451 61.5436 46.081 60.6933C46.4732 60.1634 47.2502 59.5297 48.0706 60.1666C48.5271 60.5208 48.166 61.5642 47.3517 62.2251C46.288 63.0862 45.0445 63.7074 44.0922 64.732C43.691 65.1637 43.1328 65.4474 42.6448 65.7973C42.21 66.1095 41.7877 66.4394 41.336 66.7239C39.2846 68.0219 38.3297 69.7779 39.091 72.2971C41.6272 70.7478 44.713 70.7373 47.4568 69.6178C47.701 69.5182 47.966 69.4461 48.2286 69.4223C48.7556 69.3746 48.9908 69.5847 48.7862 70.1412C48.4513 71.0512 47.896 71.7768 47.0629 72.2795C46.755 72.4653 46.391 72.5926 46.1508 72.2802C45.7809 71.7948 45.5231 72.0475 45.1765 72.2868C43.1618 73.6681 41.4373 75.4227 39.3787 76.7451C39.1617 76.884 39.0523 77.056 39.062 77.319C39.0949 78.2322 39.1178 79.1457 39.1473 80.1474C40.6111 79.0937 41.8593 77.8816 43.6579 77.688C44.7354 77.5719 45.8162 77.6365 46.8755 77.1754C47.3972 76.947 48.3353 76.8029 48.6671 77.5646C49.0055 78.3423 48.296 78.8112 47.7673 79.2808C47.0938 79.8813 46.0725 79.8592 45.4772 80.3167C44.206 81.2924 42.7988 81.6071 41.329 81.9115C40.4283 82.0988 39.1267 83.5415 39.0967 84.3662C39.0507 85.6695 39.071 86.9748 38.9847 88.2753C38.9278 89.1409 39.1763 89.3908 39.9828 89.0114C42.1549 87.9931 44.47 87.3966 46.7541 86.7025C47.0966 86.5979 47.4637 86.3702 47.7603 86.7552C48.0318 87.1069 47.9916 87.5159 47.8282 87.9005C47.4164 88.8609 46.5574 89.0972 45.6369 89.2247C45.2767 89.2735 44.8661 89.1128 44.5599 89.3569C43.2602 90.3877 41.6325 90.7912 40.2374 91.654C39.0871 92.367 38.2828 93.1662 38.3258 94.6256C38.3411 95.1456 38.0933 95.6692 38.0586 96.1987C38.0334 96.5711 37.6708 97.0158 38.0858 97.327C38.5275 97.6576 38.9255 97.2541 39.2548 97.0415C40.7632 96.0688 42.3817 95.5591 44.1854 95.6768C44.3786 95.6892 44.7077 95.6754 44.751 95.5757C45.3684 94.1612 46.4652 95.041 47.3625 95.0146C47.5552 95.009 47.7956 95.1204 47.8181 95.3388C47.8884 96.0218 47.5796 96.5875 47.1125 97.0332C46.6747 97.4499 46.1088 97.8845 45.5169 97.4338C45.0237 97.0585 44.7395 97.2316 44.3457 97.5064C43.0206 98.4275 41.6093 99.1481 39.9882 99.4329C39.2387 99.5655 38.5137 99.848 37.7918 100.102C37.1615 100.326 36.4298 102.361 36.7381 102.94C36.8593 103.166 37.0421 103.301 37.2917 103.318C39.4678 103.459 41.6566 103.896 43.7886 103.016C44.4218 102.754 45.0342 102.943 45.623 103.221C45.7473 103.28 45.8357 103.349 45.8425 103.51C45.876 104.307 44.397 105.53 43.6743 105.141C42.9721 104.764 42.5906 105.113 42.0795 105.363C40.8081 105.989 39.6326 106.805 38.0371 106.388C35.7693 105.792 35.7513 105.864 35.0235 108.1C34.607 109.378 34.9545 109.989 36.3078 110.162C37.8889 110.364 39.4732 110.398 41.0654 110.158C41.7175 110.059 42.3976 110.161 43.0672 110.178C43.3124 110.183 43.5456 110.254 43.6333 110.505C43.7233 110.763 43.5584 110.963 43.378 111.115C42.8545 111.554 42.2578 111.829 41.5595 111.86C41.2284 111.873 40.8949 111.805 40.5718 111.955C38.8435 112.761 37.1267 113.272 35.2156 112.374C34.7002 112.132 33.7985 112.146 33.3282 112.757C32.7941 113.45 33.2333 114.379 34.2268 114.822C36.2587 115.729 38.4164 115.382 40.5258 115.376C41.4339 115.373 42.2117 115.586 42.3995 116.299C42.5694 116.953 42.3866 117.431 41.6232 117.23C40.3152 116.887 39.1021 117.244 37.9085 117.649C36.0246 118.287 34.3721 117.914 32.8518 116.709C32.5412 116.463 32.2189 116.231 31.8595 115.965C31.6471 116.327 31.4964 116.669 31.2696 116.948C30.6823 117.677 30.9082 118.185 31.6324 118.625C33.31 119.647 35.1493 120.153 37.0873 120.331C37.9214 120.407 38.7402 120.514 39.4819 120.934C39.7332 121.075 39.8825 121.302 39.809 121.604C39.7552 121.822 39.5783 121.954 39.3605 121.928C38.3241 121.802 37.3211 122.197 36.3181 122.182C34.0225 122.148 31.8108 121.684 30.0231 120.061C29.5277 119.612 29.2156 119.93 29.2268 120.378C29.2548 121.466 29.4723 122.509 30.6448 123.025C32.3873 123.793 34.1606 124.448 36.1025 124.417C36.7632 124.406 37.2398 124.761 37.7357 125.088C37.918 125.207 38.157 125.409 38.0298 125.662C37.9064 125.907 37.5953 125.848 37.4002 125.773C36.4937 125.42 35.5776 125.489 34.6355 125.565C33.978 125.619 33.3041 125.522 32.641 125.449C30.6716 125.234 29.1605 124.201 27.8804 122.758C27.7433 122.606 27.6281 122.312 27.3288 122.451C27.0454 122.584 27.1011 122.838 27.192 123.06C27.7101 124.345 28.3017 125.537 29.7134 126.126C30.9034 126.623 32.106 126.934 33.3949 126.9C33.957 126.883 34.4467 127.07 34.8654 127.437C35.1665 127.701 35.562 128.033 35.2604 128.434C34.98 128.806 34.5652 128.501 34.2856 128.286C33.784 127.901 33.249 127.609 32.6238 127.8C31.19 128.236 30.0259 127.664 28.8497 126.953C27.7472 126.288 26.8195 125.422 25.9115 124.538C25.3985 124.039 24.9754 124.136 24.5265 124.515C23.9833 124.969 24.6383 125.174 24.7851 125.449C25.072 125.983 25.5689 126.346 26.0266 126.743C27.507 128.027 29.3945 128.464 31.1191 129.241C31.5121 129.418 31.9897 129.467 32.196 130.126C30.3053 129.785 28.7768 128.778 27.0436 128.393C27.2606 128.597 27.4946 128.765 27.7437 128.9C30.1264 130.19 32.709 131.037 35.1405 132.211C38.1448 133.661 41.0733 135.271 44.2023 136.457C50.8626 138.977 57.7468 140.432 64.8496 140.924C70.0399 141.284 75.2163 141.173 80.3742 140.568C85.522 139.964 90.5321 138.776 95.4509 137.08C100.32 135.402 105.053 133.476 109.593 131.038C112.565 129.441 115.109 127.175 118.188 125.73C119.268 125.222 120.01 124.077 120.627 122.988C121.198 121.976 120.14 121.991 119.724 121.73L119.714 121.719Z" fill="white"/>
</svg>
