<?xml version="1.0" encoding="UTF-8"?>
<svg xmlns="http://www.w3.org/2000/svg" version="1.1" viewBox="0 0 1847.1 1080">
  <defs>
    <style>
      .cls-1 {
        fill: none;
        stroke: #231f20;
        stroke-miterlimit: 10;
        stroke-width: 4px;
        opacity: 0.2;
      }
    </style>
  </defs>
  <!-- Generator: Adobe Illustrator 28.7.1, SVG Export Plug-In . SVG Version: 1.2.0 Build 142)  -->
  <g>
    <g id="Layer_1">
      <g>
        <line class="cls-1" x1="1" x2="1" y2="1080"/>
        <line class="cls-1" x1="55.3" x2="55.3" y2="1080"/>
        <line class="cls-1" x1="109.5" x2="109.5" y2="1080"/>
        <line class="cls-1" x1="163.8" x2="163.8" y2="1080"/>
        <line class="cls-1" x1="218.1" x2="218.1" y2="1080"/>
        <line class="cls-1" x1="272.3" x2="272.3" y2="1080"/>
        <line class="cls-1" x1="326.6" x2="326.6" y2="1080"/>
        <line class="cls-1" x1="380.9" x2="380.9" y2="1080"/>
        <line class="cls-1" x1="435.1" x2="435.1" y2="1080"/>
        <line class="cls-1" x1="489.4" x2="489.4" y2="1080"/>
        <line class="cls-1" x1="543.7" x2="543.7" y2="1080"/>
        <line class="cls-1" x1="597.9" x2="597.9" y2="1080"/>
        <line class="cls-1" x1="652.2" x2="652.2" y2="1080"/>
        <line class="cls-1" x1="706.5" x2="706.5" y2="1080"/>
        <line class="cls-1" x1="760.7" x2="760.7" y2="1080"/>
        <line class="cls-1" x1="815" x2="815" y2="1080"/>
        <line class="cls-1" x1="869.3" x2="869.3" y2="1080"/>
        <line class="cls-1" x1="923.5" x2="923.5" y2="1080"/>
        <line class="cls-1" x1="977.8" x2="977.8" y2="1080"/>
        <line class="cls-1" x1="1032.1" x2="1032.1" y2="1080"/>
        <line class="cls-1" x1="1086.4" x2="1086.4" y2="1080"/>
        <line class="cls-1" x1="1140.6" x2="1140.6" y2="1080"/>
        <line class="cls-1" x1="1194.9" x2="1194.9" y2="1080"/>
        <line class="cls-1" x1="1249.2" x2="1249.2" y2="1080"/>
        <line class="cls-1" x1="1303.4" x2="1303.4" y2="1080"/>
        <line class="cls-1" x1="1357.7" x2="1357.7" y2="1080"/>
        <line class="cls-1" x1="1412" x2="1412" y2="1080"/>
        <line class="cls-1" x1="1466.2" x2="1466.2" y2="1080"/>
        <line class="cls-1" x1="1520.5" x2="1520.5" y2="1080"/>
        <line class="cls-1" x1="1574.8" x2="1574.8" y2="1080"/>
        <line class="cls-1" x1="1629" x2="1629" y2="1080"/>
        <line class="cls-1" x1="1683.3" x2="1683.3" y2="1080"/>
        <line class="cls-1" x1="1737.6" x2="1737.6" y2="1080"/>
        <line class="cls-1" x1="1791.8" x2="1791.8" y2="1080"/>
        <line class="cls-1" x1="1846.1" x2="1846.1" y2="1080"/>
      </g>
    </g>
  </g>
</svg>