<?xml version="1.0" encoding="UTF-8"?>
<svg xmlns="http://www.w3.org/2000/svg" version="1.1" viewBox="0 0 1071.8 1079.9">
  <defs>
    <style>
      .cls-1 {
        fill: #231f20;
      }

      .cls-2 {
        font-family: TimesNewRomanPSMT, 'Times New Roman';
        font-size: 12px;
      }
    </style>
  </defs>
  <!-- Generator: Adobe Illustrator 28.7.1, SVG Export Plug-In . SVG Version: 1.2.0 Build 142)  -->
  <g>
    <g id="Layer_1">
      <text class="cls-2" transform="translate(-1 870.6)"><tspan x="0" y="0">.</tspan></text>
      <g>
        <polygon class="cls-1" points="27.5 880.8 0 908.1 0 1052.6 27.5 1079.9 122.7 1079.9 149.9 1052.8 149.9 1006.6 111 1006.6 111 1039.3 105.1 1045.1 46.7 1045.1 40.8 1039.3 40.8 921.4 46.7 915.6 105.1 915.6 111 921.4 111 954.1 149.9 954.1 149.9 907.9 122.7 880.8 27.5 880.8"/>
        <polygon class="cls-1" points="306.2 994.4 257.4 880.8 187.3 880.8 187.3 915.6 205.1 915.6 205.1 1045.1 187.3 1045.1 187.3 1079.9 260.1 1079.9 260.1 1045.1 245.9 1045.1 245.9 949.9 289.7 1051.8 323 1051.8 366.8 949.9 366.8 1045.1 352.7 1045.1 352.7 1079.9 425.5 1079.9 425.5 1045.1 407.6 1045.1 407.6 915.6 425.5 915.6 425.5 880.8 355.3 880.8 306.2 994.4"/>
        <path class="cls-1" d="M463.9,880.8v34.8h17.9v129.6h-17.9v34.8h142.7l27.5-27.3v-144.4l-27.5-27.3h-142.7ZM593.3,1039.3l-5.9,5.8h-64.8v-129.6h64.8l5.9,5.8v117.9Z"/>
        <path class="cls-1" d="M896.8,880.8h-22.1l-12.3,57.6h-54.7l12.3-57.6h-22.4l-12.2,57.6h-27.8l-4.3,19.9h27.9l-9.3,44.1h-27.9l-4.3,19.9h27.9l-12.2,57.6h22.1l12.3-57.6h54.7l-12.3,57.6h22.4l12.2-57.6h27.8l4.3-19.9h-27.9l9.3-44.1h27.9l4.3-19.9h-27.9l12.2-57.6ZM848.8,1002.4h-54.7l9.4-44.1h54.7l-9.4,44.1Z"/>
        <polygon class="cls-1" points="1031.5 880.8 991.5 880.8 932.3 909.5 949.1 942.7 990.7 922.4 990.7 1045.1 948.6 1045.1 948.6 1079.9 1071.8 1079.9 1071.8 1045.1 1031.5 1045.1 1031.5 880.8"/>
        <polygon class="cls-1" points="99.5 205.4 72.9 205.4 72.9 147.3 142.9 147.3 142.9 106.5 72.9 106.5 72.9 43.5 131 43.5 131 74 179.4 74 179.4 0 0 0 0 43.5 22.2 43.5 22.2 205.4 0 205.4 0 248.9 99.5 248.9 99.5 205.4"/>
        <polygon class="cls-1" points="307.7 205.4 285.4 205.4 285.4 43.5 307.7 43.5 307.7 0 212.5 0 212.5 43.5 234.7 43.5 234.7 205.4 212.5 205.4 212.5 248.9 307.7 248.9 307.7 205.4"/>
        <polygon class="cls-1" points="448.2 205.4 428.3 205.4 428.3 77.8 523.8 248.9 585.1 248.9 585.1 43.5 607.7 43.5 607.7 0 514.5 0 514.5 43.5 534.4 43.5 534.4 171.4 438.6 0 355.4 0 355.4 43.5 377.6 43.5 377.6 205.4 355.4 205.4 355.4 248.9 448.2 248.9 448.2 205.4"/>
        <path class="cls-1" d="M723.4,205.4h-21.5l10.9-36.2h74.8l11,36.2h-21.5v43.5h90.8v-43.5h-16.4l-49-161.9h20.6V0h-145.9v43.5h20.7l-48.7,161.9h-16.7v43.5h90.8v-43.5ZM725.1,128.4l25-82.6,25.1,82.6h-50.1Z"/>
        <polygon class="cls-1" points="1023.4 156.6 1023.4 205.4 968.4 205.4 968.4 43.5 996.9 43.5 996.9 0 895.4 0 895.4 43.5 917.7 43.5 917.7 205.4 895.4 205.4 895.4 248.9 1071.8 248.9 1071.8 156.6 1023.4 156.6"/>
        <polygon class="cls-1" points="0 428.4 0 469.2 31.1 500.4 142 500.4 173.1 469.2 173.1 398.2 143.2 368.6 54.7 368.6 48.6 362.2 48.6 319.9 55.3 313.3 119.9 313.3 126.5 319.9 126.5 345.3 170.6 345.3 170.6 304.8 139.5 273.7 33.5 273.7 2.4 304.8 2.4 370.1 37.8 405.5 120.5 405.5 126.9 411.8 126.9 454.1 120.2 460.8 50.7 460.8 44.1 454.1 44.1 428.4 0 428.4"/>
        <polygon class="cls-1" points="393.8 357.1 393.8 304.5 363 273.7 255.2 273.7 224.1 304.8 224.1 469.2 255.2 500.4 363 500.4 393.8 469.6 393.8 417 349.7 417 349.7 454.1 343.1 460.8 276.9 460.8 270.3 454.1 270.3 319.9 276.9 313.3 343.1 313.3 349.7 319.9 349.7 357.1 393.8 357.1"/>
        <path class="cls-1" d="M471.1,273.7l-31.1,31.1v164.4l31.1,31.1h114.5l31.1-31.1v-164.4l-31.1-31.1h-114.5ZM570.5,454.1l-6.6,6.7h-71l-6.6-6.7v-134.2l6.6-6.7h71l6.6,6.7v134.2Z"/>
        <path class="cls-1" d="M864.3,460.8h-15.3l-32.6-55.1,31.9-31.9v-64.4l-35.6-35.7h-148.6v39.6h20.2v147.5h-20.2v39.6h82.4v-39.6h-16v-47.8h39l28.3,47.8h-17.5v39.6h84v-39.6ZM730.6,313.3h62.8l8.8,8.5v45.6l-8.8,8.5h-62.8v-62.6Z"/>
        <polygon class="cls-1" points="900.3 313.3 920.5 313.3 920.5 460.8 900.3 460.8 900.3 500.4 1071.8 500.4 1071.8 432.7 1027.7 432.7 1027.7 460.8 966.7 460.8 966.7 405.5 1033.2 405.5 1033.2 368.6 966.7 368.6 966.7 313.3 1027.7 313.3 1027.7 341.4 1071.8 341.4 1071.8 273.7 900.3 273.7 900.3 313.3"/>
        <polygon class="cls-1" points="202.6 740.5 149.7 740.5 149.7 771 74.4 771 197.2 656.2 197.2 583.6 159.9 546.2 37.3 546.2 0 583.6 0 643.5 52.9 643.5 52.9 601.7 61.3 593.7 133.8 593.7 141.7 601.7 141.7 639.4 0 771 0 818.5 202.6 818.5 202.6 740.5"/>
        <path class="cls-1" d="M473,583.6l-37.3-37.4h-137.4l-37.3,37.4v197.6l37.3,37.4h137.4l37.3-37.4v-197.6ZM417.6,763l-8,8h-85.2l-8-8v-161.3l8-8h85.2l8,8v161.3Z"/>
        <rect class="cls-1" x="352.3" y="650.8" width="29.4" height="63.2"/>
        <polygon class="cls-1" points="615.8 771 615.8 818.5 818.5 818.5 818.5 740.5 765.5 740.5 765.5 771 690.2 771 813 656.2 813 583.6 775.7 546.2 653.2 546.2 615.8 583.6 615.8 643.5 668.8 643.5 668.8 601.7 677.1 593.7 749.6 593.7 757.6 601.7 757.6 639.4 615.8 771"/>
        <path class="cls-1" d="M1036.7,546.2h-81.6l-104.4,160.9v38.5h130.5v30.5h-36.2v42.5h124.3v-42.5h-32.6v-30.5h35.2v-44.7h-35.2v-154.7ZM981.2,603.8v97h-62.9l62.9-97Z"/>
      </g>
    </g>
  </g>
</svg>