<?xml version="1.0" encoding="UTF-8"?>
<svg xmlns="http://www.w3.org/2000/svg" version="1.1" viewBox="0 0 52.7 50.5">
  <defs>
    <style>
      .cls-1 {
        fill: #831d22;
      }
    </style>
  </defs>
  <!-- Generator: Adobe Illustrator 28.7.1, SVG Export Plug-In . SVG Version: 1.2.0 Build 142)  -->
  <g>
    <g id="Layer_1">
      <g id="s1fERa.tif">
        <g>
          <path class="cls-1" d="M52.7,7c-.6,1.1-1.2,2.1-1.8,3.2-1.3,2.3-2.6,4.5-3.9,6.8-.1.2-.3.3-.5.2-.9-.4-1.8-.8-2.7-1.3-3.1-1.5-6.3-2.5-9.7-3.1-3.1-.5-6.2-.7-9.3-.5-5.4.3-10.4,1.7-15.2,4.2-.5.3-1,.5-1.5.7-.2,0-.4,0-.5-.2-1.9-3.2-3.8-6.4-5.6-9.6-.1-.3-.1-.4.1-.6.9-.7,2-1.2,3-1.7,3.9-1.9,8-3.3,12.3-4.1,2.2-.4,4.5-.7,6.8-.9,2.7-.2,5.4,0,8.1.2,4.8.4,9.4,1.7,13.8,3.4,2.3.9,4.4,1.9,6.5,3.2,0,0,0,0,0,0h0Z"/>
          <path class="cls-1" d="M27.6,30c-1.6,0-3.2.3-4.8.7-2,.5-4,1-5.9,1.9-.2,0-.2,0-.3-.1-.7-1.2-1.4-2.4-2.1-3.5-.1-.2,0-.4.1-.6.7-.5,1.4-1,2.1-1.5,2.5-1.7,5.1-3.2,7.8-4.5.5-.3,1-.5,1.5-.9.1,0,.3-.2.3-.4,0-.2-.2-.2-.4-.3-.6-.2-1.3-.2-2,0-3,.4-5.9,1.4-8.7,2.4-2.3.9-4.4,1.9-6.6,3-.4.2-.9.4-1.4.5-.7.2-1.1-.2-.9-.9.2-.8.7-1.4,1.1-2.1.5-.8,1-1.6,1.5-2.4,0,0,0-.1.1-.2,0-.2.2-.3,0-.5-.1-.2-.3-.1-.5,0-.3,0-.5.2-.7.3-1.3.7-2.4,1.5-3.5,2.4-1.1.9-2.1,1.9-3.2,2.8-.2.2-.3.2-.4,0-.2-.2-.5-.5-.8-.7-.1,0-.1-.1,0-.3,3.3-3.3,6.9-6,11.1-8,1.6-.7,3.3-1.4,5-1.7.5,0,1-.2,1.6,0,.7.2.9.7.4,1.2-.2.2-.4.4-.6.5-1.5,1-3.1,2-4.5,3.1-.6.5-1.2,1.1-1.7,1.7-.1.2-.2.3-.3.5,0,.1,0,.2,0,.3,0,.1.2,0,.3,0,1-.4,2-.8,3.1-1.3,2.8-1.2,5.7-2.1,8.7-2.8,3-.7,6-.9,9-.9,1,0,1.9,0,2.9.1.7.1,1.4.3,2,.7.1,0,.3.2.4.2.9.7.8,1.5-.2,2-.7.4-1.5.5-2.3.7-2.9.8-5.9,1.5-8.7,2.6-.9.3-1.7.7-2.5,1.3-.4.3-.8.7-1.1,1.1-.3.4-.2.7.3.8.6.1,1.3,0,1.9,0,2.4-.2,4.8-.4,7.3-.2,1.9.1,3.7.4,5.5,1.2.5.2.9.5,1.3.8.9.8,1,1.8.7,2.9-.3,1.4-1,2.7-1.7,3.9-1.8,3.2-4,6.2-6.3,9.1-1.2,1.6-2.4,3.1-3.7,4.6-.2.2-.4.4-.6.6-.2.2-.3.2-.4,0-1.1-1.9-2.2-3.7-3.3-5.6-.9-1.5-1.8-3.1-2.7-4.6-.2-.4-.2-.4.1-.7.6-.6,1.3-1,1.9-1.5,1.8-1.4,3.5-2.8,5.1-4.4.5-.5.9-1,1.3-1.6.1-.2.2-.3.3-.5.2-.6,0-1-.6-1.2-.5-.1-1-.1-1.5-.1Z"/>
        </g>
      </g>
    </g>
  </g>
</svg>