<svg width="1499" height="866" viewBox="0 0 1499 866" fill="none" xmlns="http://www.w3.org/2000/svg">
<path fill-rule="evenodd" clip-rule="evenodd" d="M1499 46.2077L1287.19 168.497L1265.04 181.284L1239.15 196.232L1275.85 217.417L1287.19 223.966L1499 346.255V290.786L1335.23 196.232L1499 101.677V46.2077Z" fill="white"/>
<path opacity="0.8" fill-rule="evenodd" clip-rule="evenodd" d="M1499 407.206L1435 401L1191.5 558.5L1499 638.88V407.206Z" fill="black" fill-opacity="0.5"/>
<path fill-rule="evenodd" clip-rule="evenodd" d="M0.105927 0L1499 865.387V809.918L96.1812 0H0.105927Z" fill="white"/>
<path d="M1290.5 313.336L1041.5 456.836L1191.5 544.336L1429 535.836L1441 401.336L1290.5 313.336Z" fill="white"/>
<path d="M1041.5 472.836V456.827L1191.5 544L1429 535.5L1428.5 550.836L1191.5 558.836L1041.5 472.836Z" fill="#D9D9D9"/>
</svg>
